<svg width="15.199997" height="19.200012" viewBox="0 0 15.2 19.2" fill="none" xmlns="http://www.w3.org/2000/svg" xmlns:xlink="http://www.w3.org/1999/xlink">
	<desc>
			Created with Pixso.
	</desc>
	<defs/>
	<path id="Vector" d="M9.6 0.6L9.6 4.6C9.6 4.86 9.7 5.11 9.89 5.3C10.08 5.49 10.33 5.6 10.6 5.6L14.6 5.6M2.6 18.6C2.06 18.6 1.56 18.38 1.18 18.01C0.81 17.63 0.59 17.13 0.59 16.6L0.59 2.6C0.59 2.06 0.81 1.56 1.18 1.18C1.56 0.81 2.06 0.6 2.6 0.6L9.6 0.6L14.6 5.6L14.6 16.6C14.6 17.13 14.38 17.63 14.01 18.01C13.63 18.38 13.13 18.6 12.6 18.6L2.6 18.6ZM10.6 10.6C10.86 10.33 11.01 9.97 11.01 9.6C11.01 9.22 10.86 8.86 10.6 8.6C10.33 8.33 9.97 8.18 9.6 8.18C9.22 8.18 8.86 8.33 8.6 8.6L3.6 13.6L3.6 15.6L5.6 15.6L10.6 10.6Z" stroke="#354052" stroke-opacity="1.000000" stroke-width="1.200000" stroke-linejoin="round"/>
</svg>
